<svg width="20" height="20" viewBox="0 0 20 20" fill="none" xmlns="http://www.w3.org/2000/svg">
<path fill-rule="evenodd" clip-rule="evenodd" d="M10 1.66663C5.39752 1.66663 1.66669 5.40329 1.66669 10.0141C1.66669 13.7016 4.05419 16.8308 7.36585 17.9341C7.78252 18.0108 7.93419 17.7533 7.93419 17.5316C7.93419 17.3341 7.92752 16.8083 7.92335 16.1125C5.60502 16.6166 5.11585 14.9933 5.11585 14.9933C4.73752 14.0283 4.19085 13.7716 4.19085 13.7716C3.43419 13.255 4.24835 13.265 4.24835 13.265C5.08419 13.3233 5.52419 14.125 5.52419 14.125C6.26752 15.4 7.47502 15.0316 7.94919 14.8183C8.02585 14.2791 8.24085 13.9116 8.47919 13.7033C6.62919 13.4925 4.68335 12.7758 4.68335 9.57746C4.68335 8.66663 5.00835 7.92079 5.54085 7.33746C5.45502 7.12663 5.16919 6.27746 5.62252 5.12913C5.62252 5.12913 6.32252 4.90413 7.91419 5.98413C8.59399 5.79872 9.29539 5.70429 10 5.70329C10.7084 5.70663 11.4209 5.79913 12.0867 5.98413C13.6775 4.90413 14.3759 5.12829 14.3759 5.12829C14.8309 6.27746 14.5442 7.12663 14.4592 7.33746C14.9925 7.92079 15.3159 8.66663 15.3159 9.57746C15.3159 12.7841 13.3667 13.49 11.5109 13.6966C11.81 13.9541 12.0759 14.4633 12.0759 15.2425C12.0759 16.3575 12.0659 17.2583 12.0659 17.5316C12.0659 17.755 12.2159 18.015 12.6392 17.9333C16.0421 16.7919 18.3348 13.6034 18.3334 10.0141C18.3334 5.40329 14.6017 1.66663 10 1.66663Z" fill="#506856"/>
</svg>
